<svg xmlns="http://www.w3.org/2000/svg" xmlns:xlink="http://www.w3.org/1999/xlink" width="64" zoomAndPan="magnify" viewBox="0 0 48 48" height="64" preserveAspectRatio="xMidYMid meet" version="1.0"><defs><g/><clipPath id="1cf3bb4d73"><path d="M 0.488281 0 L 47.507812 0 L 47.507812 47.019531 L 0.488281 47.019531 Z M 0.488281 0 " clip-rule="nonzero"/></clipPath><clipPath id="532c34ebd1"><path d="M 31.199219 28.652344 L 37 28.652344 L 37 36 L 31.199219 36 Z M 31.199219 28.652344 " clip-rule="nonzero"/></clipPath><clipPath id="502aaa4258"><rect x="0" width="25" y="0" height="43"/></clipPath></defs><g clip-path="url(#1cf3bb4d73)"><path fill="#ffffff" d="M 0.488281 0 L 47.511719 0 L 47.511719 47.019531 L 0.488281 47.019531 Z M 0.488281 0 " fill-opacity="1" fill-rule="nonzero"/><path fill="#ffecea" d="M 0.488281 0 L 47.511719 0 L 47.511719 47.019531 L 0.488281 47.019531 Z M 0.488281 0 " fill-opacity="1" fill-rule="nonzero"/></g><g clip-path="url(#532c34ebd1)"><path fill="#00215e" d="M 31.265625 32.386719 C 31.785156 32.808594 32.253906 33.28125 32.675781 33.796875 C 33.160156 34.394531 33.574219 35.039062 33.90625 35.734375 C 33.941406 35.800781 33.996094 35.835938 34.070312 35.835938 C 34.144531 35.835938 34.199219 35.800781 34.230469 35.734375 C 34.863281 34.421875 35.746094 33.308594 36.875 32.386719 C 36.917969 32.351562 36.941406 32.304688 36.941406 32.25 C 36.941406 32.191406 36.917969 32.144531 36.875 32.109375 C 36.355469 31.6875 35.886719 31.21875 35.464844 30.699219 C 34.976562 30.101562 34.566406 29.457031 34.230469 28.761719 C 34.195312 28.703125 34.140625 28.671875 34.070312 28.671875 C 33.996094 28.671875 33.945312 28.703125 33.90625 28.761719 C 33.574219 29.457031 33.160156 30.101562 32.675781 30.699219 C 32.253906 31.21875 31.785156 31.6875 31.265625 32.109375 C 31.222656 32.144531 31.199219 32.191406 31.199219 32.25 C 31.199219 32.304688 31.222656 32.351562 31.265625 32.386719 Z M 31.265625 32.386719 " fill-opacity="1" fill-rule="nonzero"/></g><g transform="matrix(1, 0, 0, 1, 10, 2)"><g clip-path="url(#502aaa4258)"><g fill="#00215e" fill-opacity="1"><g transform="translate(1.0575, 33.637785)"><g><path d="M 10.625 0.4375 C 9.644531 0.4375 8.828125 0.335938 8.171875 0.140625 C 7.523438 -0.046875 6.992188 -0.257812 6.578125 -0.5 C 6.160156 -0.738281 5.820312 -0.953125 5.5625 -1.140625 C 5.3125 -1.335938 5.101562 -1.4375 4.9375 -1.4375 C 4.757812 -1.4375 4.554688 -1.347656 4.328125 -1.171875 C 4.109375 -1.003906 3.875 -0.800781 3.625 -0.5625 C 3.375 -0.332031 3.113281 -0.132812 2.84375 0.03125 C 2.582031 0.207031 2.328125 0.296875 2.078125 0.296875 C 1.679688 0.296875 1.378906 0.191406 1.171875 -0.015625 C 0.972656 -0.234375 0.894531 -0.578125 0.9375 -1.046875 L 1.65625 -7.109375 C 1.6875 -7.617188 1.8125 -8 2.03125 -8.25 C 2.257812 -8.507812 2.554688 -8.640625 2.921875 -8.640625 C 3.253906 -8.640625 3.523438 -8.523438 3.734375 -8.296875 C 3.953125 -8.066406 4.160156 -7.722656 4.359375 -7.265625 L 4.84375 -5.265625 C 5.132812 -4.128906 5.691406 -3.265625 6.515625 -2.671875 C 7.335938 -2.078125 8.285156 -1.78125 9.359375 -1.78125 C 10.296875 -1.78125 11.050781 -2.015625 11.625 -2.484375 C 12.207031 -2.960938 12.5625 -3.609375 12.6875 -4.421875 C 12.789062 -5.035156 12.742188 -5.628906 12.546875 -6.203125 C 12.359375 -6.773438 11.984375 -7.34375 11.421875 -7.90625 C 10.867188 -8.476562 10.085938 -9.066406 9.078125 -9.671875 C 7.898438 -10.378906 6.953125 -11.109375 6.234375 -11.859375 C 5.515625 -12.617188 5.015625 -13.429688 4.734375 -14.296875 C 4.460938 -15.160156 4.382812 -16.125 4.5 -17.1875 C 4.613281 -18.195312 4.910156 -19.15625 5.390625 -20.0625 C 5.867188 -20.96875 6.523438 -21.765625 7.359375 -22.453125 C 8.203125 -23.140625 9.21875 -23.675781 10.40625 -24.0625 C 11.601562 -24.457031 12.972656 -24.65625 14.515625 -24.65625 C 15.859375 -24.65625 17.039062 -24.488281 18.0625 -24.15625 C 19.082031 -23.832031 19.9375 -23.390625 20.625 -22.828125 C 21.3125 -22.273438 21.820312 -21.648438 22.15625 -20.953125 C 22.488281 -20.265625 22.640625 -19.554688 22.609375 -18.828125 C 22.578125 -18.066406 22.359375 -17.429688 21.953125 -16.921875 C 21.554688 -16.421875 21 -16.171875 20.28125 -16.171875 C 19.707031 -16.171875 19.238281 -16.328125 18.875 -16.640625 C 18.507812 -16.953125 18.195312 -17.492188 17.9375 -18.265625 L 17.546875 -19.6875 C 17.273438 -20.695312 16.847656 -21.445312 16.265625 -21.9375 C 15.679688 -22.425781 14.984375 -22.671875 14.171875 -22.671875 C 13.441406 -22.671875 12.804688 -22.523438 12.265625 -22.234375 C 11.734375 -21.941406 11.304688 -21.546875 10.984375 -21.046875 C 10.671875 -20.554688 10.46875 -19.992188 10.375 -19.359375 C 10.28125 -18.710938 10.332031 -18.097656 10.53125 -17.515625 C 10.726562 -16.929688 11.097656 -16.351562 11.640625 -15.78125 C 12.179688 -15.207031 12.925781 -14.613281 13.875 -14 C 14.988281 -13.28125 15.898438 -12.59375 16.609375 -11.9375 C 17.328125 -11.28125 17.878906 -10.628906 18.265625 -9.984375 C 18.660156 -9.347656 18.914062 -8.6875 19.03125 -8 C 19.144531 -7.3125 19.15625 -6.585938 19.0625 -5.828125 C 18.9375 -4.609375 18.503906 -3.523438 17.765625 -2.578125 C 17.035156 -1.640625 16.054688 -0.898438 14.828125 -0.359375 C 13.609375 0.171875 12.207031 0.4375 10.625 0.4375 Z M 10.625 0.4375 "/></g></g></g></g></g></svg>